<svg xmlns="http://www.w3.org/2000/svg" viewBox="0 0 128 128">
  <defs>
    <linearGradient id="wx-top" x1="0" y1="0" x2="1" y2="1">
      <stop offset="0" stop-color="#c9b6f2"/>
      <stop offset="1" stop-color="#9b82e8"/>
    </linearGradient>
    <linearGradient id="wx-mid" x1="0" y1="0" x2="1" y2="1">
      <stop offset="0" stop-color="#a68cec"/>
      <stop offset="1" stop-color="#7b62da"/>
    </linearGradient>
    <linearGradient id="wx-bot" x1="0" y1="0" x2="1" y2="1">
      <stop offset="0" stop-color="#8d76e2"/>
      <stop offset="1" stop-color="#5f43c4"/>
    </linearGradient>
  </defs>
  <g>
    <path d="M64 104 C50 92 30 88 14 92 C22 74 42 64 60 68 C55 80 57 96 64 104 Z" fill="url(#wx-bot)"/>
    <path d="M64 96 C54 82 38 74 24 76 C32 60 48 52 62 58 C58 70 59 86 64 96 Z" fill="url(#wx-mid)"/>
    <path d="M64 88 C58 74 46 64 34 64 C42 50 56 44 66 50 C63 62 62 76 64 88 Z" fill="url(#wx-top)"/>
    <path d="M60 66 C48 62 34 66 26 74 C36 64 50 60 60 64 Z" fill="#ffffff" opacity=".38"/>
  </g>
  <g>
    <path d="M64 104 C78 92 98 88 114 92 C106 74 86 64 68 68 C73 80 71 96 64 104 Z" fill="url(#wx-bot)"/>
    <path d="M64 96 C74 82 90 74 104 76 C96 60 80 52 66 58 C70 70 69 86 64 96 Z" fill="url(#wx-mid)"/>
    <path d="M64 88 C70 74 82 64 94 64 C86 50 72 44 62 50 C65 62 66 76 64 88 Z" fill="url(#wx-top)"/>
    <path d="M68 66 C80 62 94 66 102 74 C92 64 78 60 68 64 Z" fill="#ffffff" opacity=".28"/>
  </g>
</svg>
